<?xml version="1.0"?>
<svg xmlns="http://www.w3.org/2000/svg" xmlns:xlink="http://www.w3.org/1999/xlink" viewBox="0 0 1400 980">
  <defs>
    <style>.cls-1{fill:url(#linear-gradient);}.cls-2,.cls-3,.cls-5{fill:none;stroke:#333;stroke-linecap:round;stroke-linejoin:round;}.cls-2{stroke-width:14.36px;}.cls-3{stroke-width:11.47px;}.cls-4,.cls-6{fill:#333;}.cls-5{stroke-width:10.99px;}.cls-6{font-size:55.06px;font-family:Lato-ExtraBold, Lato;font-weight:700;}.cls-7{letter-spacing:-0.05em;}.cls-8{letter-spacing:-0.03em;}.cls-9{letter-spacing:0em;}</style>
    <linearGradient id="linear-gradient" x1="700" y1="980" x2="700" gradientUnits="userSpaceOnUse">
      <stop offset="0" stop-color="#f2f2f2"/>
      <stop offset="1" stop-color="#fff"/>
    </linearGradient>
  </defs>
  <title>romanpillars</title>
  <g id="background"/>
  <g id="logos">
    <line class="cls-2" x1="299.48" y1="844.52" x2="490.94" y2="844.52"/>
    <line class="cls-2" x1="272.13" y1="874.71" x2="518.29" y2="874.71"/>
    <path class="cls-2" d="M551.36,211.2a14.73,14.73,0,0,0,14.76,14.72,20.5,20.5,0,0,0,20.46-20.49,27.77,27.77,0,0,0-27.71-27.76,36.83,36.83,0,0,0-36.72,36.77c0,25.66,22.33,48,48,48h.05a62.22,62.22,0,0,0,62.16-62.15,80,80,0,0,0-79.82-79.76H238.7a80,80,0,0,0-79.81,79.76,62.22,62.22,0,0,0,62.17,62.15h0c25.69,0,48.05-22.38,48.05-48a36.79,36.79,0,0,0-36.76-36.77,27.82,27.82,0,0,0-27.72,27.76,20.52,20.52,0,0,0,20.51,20.49,14.71,14.71,0,0,0,14.74-14.72"/>
    <line class="cls-2" x1="299.48" y1="210.25" x2="490.94" y2="210.25"/>
    <line class="cls-2" x1="299.48" y1="240.43" x2="490.94" y2="240.43"/>
    <line class="cls-2" x1="305.31" y1="270.71" x2="305.31" y2="814.24"/>
    <line class="cls-2" x1="350.11" y1="270.71" x2="350.11" y2="814.24"/>
    <line class="cls-2" x1="394.9" y1="270.71" x2="394.9" y2="814.24"/>
    <line class="cls-2" x1="439.7" y1="270.71" x2="439.7" y2="814.24"/>
    <line class="cls-2" x1="484.5" y1="270.71" x2="484.5" y2="814.24"/>
    <path class="cls-3" d="M1091.18,629a11.87,11.87,0,0,0,11.89,11.86,16.51,16.51,0,0,0,16.48-16.51A22.37,22.37,0,0,0,1097.23,602a29.67,29.67,0,0,0-29.58,29.63c0,20.67,18,38.7,38.66,38.7h0a50.13,50.13,0,0,0,50.08-50.07A64.44,64.44,0,0,0,1092.12,556H839.29A64.42,64.42,0,0,0,775,620.24a50.13,50.13,0,0,0,50.09,50.07h0c20.7,0,38.71-18,38.71-38.7A29.64,29.64,0,0,0,834.17,602a22.42,22.42,0,0,0-22.33,22.37,16.54,16.54,0,0,0,16.52,16.51A11.85,11.85,0,0,0,840.24,629"/>
    <line class="cls-3" x1="888.25" y1="628.24" x2="1042.5" y2="628.24"/>
    <line class="cls-3" x1="888.25" y1="652.55" x2="1042.5" y2="652.55"/>
    <line class="cls-3" x1="892.96" y1="676.03" x2="892.96" y2="764.45"/>
    <line class="cls-3" x1="929.04" y1="676.03" x2="929.04" y2="764.45"/>
    <line class="cls-3" x1="965.13" y1="676.03" x2="965.13" y2="764.45"/>
    <line class="cls-3" x1="1001.22" y1="676.03" x2="1001.22" y2="764.45"/>
    <line class="cls-3" x1="1037.31" y1="676.03" x2="1037.31" y2="764.45"/>
    <path class="cls-4" d="M863.31,859.32a2.34,2.34,0,0,0-.28-2.71l-.64-.83c-5.28,7.12-11.89,15.93-14.23,18.64a7.14,7.14,0,0,1-1.79-1.65c3.45-4,10.65-14,14.37-19.1l-.37-.5c-1.7-2.21-1.47-4.91,1.24-7.35l2.48,2.71a1.86,1.86,0,0,0-.28,2.76l2.67,3.21c1.56,1.88,2.34,3.58.68,6.47l-4.77,8.35c-1.1,1.89-.5,2.62.55,2.62,2.11,0,5.46-3.17,8.9-7.16l.33-.37a4.15,4.15,0,0,1,1.79,1.66c-4,4.58-8.49,8.81-12.44,8.81s-5.28-3.26-3.26-6.8Z"/>
    <path class="cls-4" d="M927.42,864.41a4.15,4.15,0,0,1,1.79,1.66c-4,4.58-8.49,8.81-12.44,8.81s-5.27-3.26-3.26-6.8l6.2-10.78c2.3-3.95-2-5-11,7.76l-5.37,9.36h-4.86l9.86-17.12c2.25-3.9-1.92-4.91-10.78,7.48L892,874.42h-4.82l6-10.42a15.45,15.45,0,0,1-5.92,1.15l-2.16,3.76c-2.48,4.27-6.19,6.2-9.31,6.2s-5.51-1.84-5.51-5.1a10.69,10.69,0,0,1,1.7-5.32l3.39-6h1.52a9,9,0,0,1-.1-1.19c0-2.94,2.71-7.21,7.26-7.21,7,0,8.07,6.29,4.95,11.84l-.18.33a11,11,0,0,0,7.3-3.68l.18-.18,4.13-7.16h4.77l-2.84,5c3-3.81,5.74-5.42,8.21-5.42s4.46,2.43,2.8,5.78c3.17-4,6-5.78,8.54-5.78s4.64,2.62,2.57,6.24l-6.88,12.07c-1.11,1.89-.51,2.62.55,2.62,2.11,0,5.46-3.17,8.9-7.16Zm-52.09,3a4.87,4.87,0,0,0-.83,2.48,1.79,1.79,0,0,0,1.93,1.84,4.68,4.68,0,0,0,3.77-2.48l2.75-4.73a9.63,9.63,0,0,1-4.45-2.66Zm10.23-7.34c1.79-3,1.2-6.38-1.56-6.47-1.69,0-2.93,1.74-2.93,3.58a4.89,4.89,0,0,0,3.39,4.72Z"/>
    <path class="cls-4" d="M949.94,864.41a4.1,4.1,0,0,1,1.79,1.66c-3.94,4.58-8.49,8.81-12.44,8.81-2.43,0-3.9-1.29-4.12-3.12-2.3,1.88-4.69,3.12-6.61,3.12-3.86,0-5.28-3.26-3.26-6.8l6.7-11.56c2-3.49,5.6-5.51,8.17-5.51,3.12,0,5.18,2.8,5,4.82h2.71l-7.71,13.49c-1.1,1.89-.51,2.62.55,2.62,2.11,0,5.46-3.17,8.9-7.16Zm-20.51,4.91c-1.1,1.89-.51,2.62.55,2.62,2,0,4.82-2.16,7.71-6.7l3.72-6.52c2.34-4.31-2.76-5.46-5.33-1Z"/>
    <path class="cls-4" d="M972.47,864.41a4.18,4.18,0,0,1,1.8,1.66c-3.95,4.58-8.5,8.81-12.44,8.81s-5.28-3.26-3.26-6.8l6.19-10.78c2.07-3.53-1.19-4.73-8.49,4.41L949,874.42h-4.82l13.26-22.95h4.77l-1.79,3.12C962.79,852.11,965,851,967,851c2.66,0,4.64,2.62,2.57,6.24l-6.88,12.07c-1.1,1.89-.51,2.62.55,2.62,2.11,0,5.46-3.17,8.9-7.16Z"/>
    <path class="cls-4" d="M973.94,884.52l19-33h4.77l-1,1.65c4.87-4.36,12.07-1.83,7.62,5.74l-5.28,9c-.59,1-1.19,2.34-2,3.58,2.89-1,6.06-3.58,8.72-6.7l.32-.37a3,3,0,0,1,1.79,1.66c-3.9,4.54-8.44,8.67-15.37,8.81h-.28a5.2,5.2,0,0,1-5.23-3.86l2.71-1.28c.87,1.79,2.66,1.37,3.44,0l7.2-12.49c1.24-2.15-2.11-4.82-7.43,2.44l-14.27,24.83Z"/>
    <path class="cls-4" d="M1018,864.41a4.15,4.15,0,0,1,1.79,1.66c-3.95,4.58-8.49,8.81-12.44,8.81s-5.28-3.26-3.26-6.8l9.6-16.61h4.77l-10.24,17.85c-1.1,1.89-.5,2.62.56,2.62,2.11,0,5.46-3.17,8.9-7.16Zm1.06-20.92a2.77,2.77,0,0,1,2.8,2.79,2.74,2.74,0,0,1-2.8,2.76,2.71,2.71,0,0,1-2.76-2.76A2.74,2.74,0,0,1,1019.05,843.49Z"/>
    <path class="cls-4" d="M1029.78,864.41a4.15,4.15,0,0,1,1.79,1.66c-3.94,4.58-8.49,8.81-12.44,8.81s-5.27-3.26-3.25-6.8l15.42-26.71h4.77l-16.06,28c-1.1,1.89-.51,2.62.55,2.62,2.11,0,5.46-3.17,8.9-7.16Z"/>
    <path class="cls-4" d="M1052.31,864.41a4.1,4.1,0,0,1,1.79,1.66c-3.94,4.58-8.49,8.81-12.43,8.81-2.44,0-3.91-1.29-4.13-3.12-2.3,1.88-4.69,3.12-6.61,3.12-3.86,0-5.28-3.26-3.26-6.8l6.7-11.56c2-3.49,5.6-5.51,8.17-5.51,3.12,0,5.18,2.8,5,4.82h2.71l-7.71,13.49c-1.1,1.89-.51,2.62.55,2.62,2.11,0,5.46-3.17,8.9-7.16Zm-20.51,4.91c-1.1,1.89-.51,2.62.55,2.62,2,0,4.82-2.16,7.71-6.7l3.72-6.52c2.34-4.31-2.76-5.46-5.33-1Z"/>
    <path class="cls-4" d="M1062.91,859.32a2.36,2.36,0,0,0-.27-2.71l-.65-.78c-3.81,5.19-5.6,7.57-7.89,10.24a6.83,6.83,0,0,1-1.79-1.66c3.12-3.67,6-7.71,8.08-10.69l-.41-.55c-1.7-2.21-1.47-4.91,1.23-7.35l2.48,2.71a1.87,1.87,0,0,0-.27,2.76l2.66,3.21c1.56,1.88,2.34,3.58.69,6.47l-4.78,8.35c-1.1,1.89-.5,2.62.56,2.62,2.11,0,5.46-3.17,8.9-7.16l.32-.37a4.15,4.15,0,0,1,1.79,1.66c-4,4.58-8.49,8.81-12.44,8.81s-5.28-3.26-3.26-6.8Z"/>
    <path class="cls-3" d="M1091.18,203.47a11.87,11.87,0,0,0,11.89,11.87,16.52,16.52,0,0,0,16.48-16.52,22.37,22.37,0,0,0-22.32-22.36,29.67,29.67,0,0,0-29.58,29.62c0,20.68,18,38.71,38.66,38.71h0a50.13,50.13,0,0,0,50.08-50.07,64.44,64.44,0,0,0-64.31-64.26H839.29A64.42,64.42,0,0,0,775,194.72a50.13,50.13,0,0,0,50.09,50.07h0c20.7,0,38.71-18,38.71-38.71a29.64,29.64,0,0,0-29.62-29.62,22.42,22.42,0,0,0-22.33,22.36,16.54,16.54,0,0,0,16.52,16.52,11.85,11.85,0,0,0,11.88-11.87"/>
    <line class="cls-3" x1="888.25" y1="202.71" x2="1042.5" y2="202.71"/>
    <line class="cls-3" x1="888.25" y1="227.03" x2="1042.5" y2="227.03"/>
    <line class="cls-5" x1="866.22" y1="473.92" x2="1064.54" y2="473.92"/>
    <line class="cls-3" x1="892.96" y1="250.51" x2="892.96" y2="338.92"/>
    <line class="cls-3" x1="929.04" y1="250.51" x2="929.04" y2="338.92"/>
    <line class="cls-3" x1="965.13" y1="250.51" x2="965.13" y2="338.92"/>
    <line class="cls-3" x1="1001.22" y1="250.51" x2="1001.22" y2="338.92"/>
    <line class="cls-3" x1="1037.31" y1="250.51" x2="1037.31" y2="338.92"/>
    <path class="cls-4" d="M863.31,433.72A2.35,2.35,0,0,0,863,431l-.64-.82c-5.28,7.11-11.89,15.92-14.23,18.63a7,7,0,0,1-1.79-1.65c3.45-4,10.65-13.95,14.37-19.09l-.37-.51c-1.7-2.2-1.47-4.91,1.24-7.34l2.48,2.71a1.85,1.85,0,0,0-.28,2.75l2.67,3.21c1.56,1.88,2.34,3.58.68,6.47l-4.77,8.36c-1.1,1.88-.5,2.61.55,2.61,2.11,0,5.46-3.17,8.9-7.16l.33-.37a4.22,4.22,0,0,1,1.79,1.66c-4,4.59-8.49,8.81-12.44,8.81s-5.28-3.26-3.26-6.79Z"/>
    <path class="cls-4" d="M927.42,438.81a4.22,4.22,0,0,1,1.79,1.66c-4,4.59-8.49,8.81-12.44,8.81s-5.27-3.26-3.26-6.79l6.2-10.79c2.3-3.94-2-5-11,7.76l-5.37,9.36h-4.86l9.86-17.12c2.25-3.9-1.92-4.91-10.78,7.48L892,448.82h-4.82l6-10.42a15.45,15.45,0,0,1-5.92,1.15l-2.16,3.76c-2.48,4.27-6.19,6.2-9.31,6.2s-5.51-1.84-5.51-5.1a10.72,10.72,0,0,1,1.7-5.32l3.39-6h1.52a8.8,8.8,0,0,1-.1-1.19c0-2.94,2.71-7.2,7.26-7.2,7,0,8.07,6.28,4.95,11.84l-.18.32a11.06,11.06,0,0,0,7.3-3.67l.18-.19,4.13-7.16h4.77l-2.84,5c3-3.81,5.74-5.42,8.21-5.42s4.46,2.44,2.8,5.79c3.17-4,6-5.79,8.54-5.79s4.64,2.62,2.57,6.25l-6.88,12.07c-1.11,1.88-.51,2.61.55,2.61,2.11,0,5.46-3.17,8.9-7.16Zm-52.09,3a4.87,4.87,0,0,0-.83,2.48,1.79,1.79,0,0,0,1.93,1.84,4.68,4.68,0,0,0,3.77-2.48L883,439a9.63,9.63,0,0,1-4.45-2.66Zm10.23-7.34c1.79-3,1.2-6.38-1.56-6.47-1.69,0-2.93,1.74-2.93,3.58a4.9,4.9,0,0,0,3.39,4.73Z"/>
    <path class="cls-4" d="M949.94,438.81a4.16,4.16,0,0,1,1.79,1.66c-3.94,4.59-8.49,8.81-12.44,8.81-2.43,0-3.9-1.29-4.12-3.12-2.3,1.88-4.69,3.12-6.61,3.12-3.86,0-5.28-3.26-3.26-6.79l6.7-11.57c2-3.49,5.6-5.51,8.17-5.51,3.12,0,5.18,2.8,5,4.82h2.71l-7.71,13.5c-1.1,1.88-.51,2.61.55,2.61,2.11,0,5.46-3.17,8.9-7.16Zm-20.51,4.92c-1.1,1.88-.51,2.61.55,2.61,2,0,4.82-2.15,7.71-6.7l3.72-6.52c2.34-4.31-2.76-5.46-5.33-1Z"/>
    <path class="cls-4" d="M972.47,438.81a4.24,4.24,0,0,1,1.8,1.66c-3.95,4.59-8.5,8.81-12.44,8.81s-5.28-3.26-3.26-6.79l6.19-10.79c2.07-3.53-1.19-4.73-8.49,4.41L949,448.82h-4.82l13.26-22.95h4.77L960.4,429c2.39-2.47,4.55-3.58,6.61-3.58,2.66,0,4.64,2.62,2.57,6.25l-6.88,12.07c-1.1,1.88-.51,2.61.55,2.61,2.11,0,5.46-3.17,8.9-7.16Z"/>
    <path class="cls-4" d="M973.94,458.92l19-33.05h4.77l-1,1.65c4.87-4.36,12.07-1.83,7.62,5.74l-5.28,9c-.59,1-1.19,2.34-2,3.58,2.89-1,6.06-3.58,8.72-6.7l.32-.37a3,3,0,0,1,1.79,1.66c-3.9,4.54-8.44,8.67-15.37,8.81h-.28a5.2,5.2,0,0,1-5.23-3.86l2.71-1.28c.87,1.79,2.66,1.38,3.44,0l7.2-12.48c1.24-2.16-2.11-4.82-7.43,2.43l-14.27,24.83Z"/>
    <path class="cls-4" d="M1018,438.81a4.22,4.22,0,0,1,1.79,1.66c-3.95,4.59-8.49,8.81-12.44,8.81s-5.28-3.26-3.26-6.79l9.6-16.62h4.77l-10.24,17.86c-1.1,1.88-.5,2.61.56,2.61,2.11,0,5.46-3.17,8.9-7.16Zm1.06-20.92a2.78,2.78,0,0,1,2.8,2.8,2.74,2.74,0,0,1-2.8,2.75,2.71,2.71,0,0,1-2.76-2.75A2.75,2.75,0,0,1,1019.05,417.89Z"/>
    <path class="cls-4" d="M1029.78,438.81a4.22,4.22,0,0,1,1.79,1.66c-3.94,4.59-8.49,8.81-12.44,8.81s-5.27-3.26-3.25-6.79l15.42-26.71h4.77l-16.06,28c-1.1,1.88-.51,2.61.55,2.61,2.11,0,5.46-3.17,8.9-7.16Z"/>
    <path class="cls-4" d="M1052.31,438.81a4.16,4.16,0,0,1,1.79,1.66c-3.94,4.59-8.49,8.81-12.43,8.81-2.44,0-3.91-1.29-4.13-3.12-2.3,1.88-4.69,3.12-6.61,3.12-3.86,0-5.28-3.26-3.26-6.79l6.7-11.57c2-3.49,5.6-5.51,8.17-5.51,3.12,0,5.18,2.8,5,4.82h2.71l-7.71,13.5c-1.1,1.88-.51,2.61.55,2.61,2.11,0,5.46-3.17,8.9-7.16Zm-20.51,4.92c-1.1,1.88-.51,2.61.55,2.61,2,0,4.82-2.15,7.71-6.7l3.72-6.52c2.34-4.31-2.76-5.46-5.33-1Z"/>
    <path class="cls-4" d="M1062.91,433.72a2.36,2.36,0,0,0-.27-2.71l-.65-.78c-3.81,5.19-5.6,7.58-7.89,10.24a6.83,6.83,0,0,1-1.79-1.66c3.12-3.67,6-7.71,8.08-10.69l-.41-.55c-1.7-2.2-1.47-4.91,1.23-7.34l2.48,2.71a1.86,1.86,0,0,0-.27,2.75l2.66,3.21c1.56,1.88,2.34,3.58.69,6.47l-4.78,8.36c-1.1,1.88-.5,2.61.56,2.61,2.11,0,5.46-3.17,8.9-7.16l.32-.37a4.22,4.22,0,0,1,1.79,1.66c-4,4.59-8.49,8.81-12.44,8.81s-5.28-3.26-3.26-6.79Z"/>
  </g>
  <g id="Layer_3" data-name="Layer 3">
    <text class="cls-6" transform="translate(737.94 828.53)">
      <tspan class="cls-7">Y</tspan>
      <tspan x="34.36" y="0">OUR</tspan>
      <tspan class="cls-8" x="156.66" y="0"> </tspan>
      <tspan x="167.7" y="0">TEX</tspan>
      <tspan class="cls-8" x="270.77" y="0">T</tspan>
      <tspan class="cls-9" x="302.63" y="0" xml:space="preserve"> HERE</tspan>
    </text>
    <text class="cls-6" transform="translate(737.94 402.93)">
      <tspan class="cls-7">Y</tspan>
      <tspan x="34.36" y="0">OUR</tspan>
      <tspan class="cls-8" x="156.66" y="0"> </tspan>
      <tspan x="167.7" y="0">TEX</tspan>
      <tspan class="cls-8" x="270.77" y="0">T</tspan>
      <tspan class="cls-9" x="302.63" y="0" xml:space="preserve"> HERE</tspan>
    </text>
  </g>
</svg>
