<svg id="svg" version="1.1" xmlns="http://www.w3.org/2000/svg" xmlns:xlink="http://www.w3.org/1999/xlink" width="400" height="400" viewBox="0, 0, 400,400"><g id="svgg"><path id="path0" d="M183.000 90.434 C 181.460 90.615,178.441 91.306,176.292 91.969 C 174.143 92.632,171.443 93.295,170.292 93.443 C 169.141 93.591,167.210 94.203,166.000 94.804 C 164.790 95.405,162.741 96.202,161.447 96.575 C 160.152 96.948,158.172 97.766,157.047 98.393 C 155.921 99.020,154.248 99.753,153.330 100.021 C 152.411 100.289,151.102 101.018,150.421 101.639 C 149.741 102.261,148.422 103.141,147.492 103.594 C 144.756 104.927,139.770 108.483,136.663 111.317 C 135.748 112.152,133.977 113.692,132.726 114.740 C 131.476 115.787,128.726 118.615,126.616 121.022 C 124.505 123.430,122.356 125.861,121.839 126.424 C 121.322 126.988,120.624 127.978,120.288 128.624 C 119.953 129.271,119.115 130.507,118.426 131.371 C 117.738 132.235,116.847 133.675,116.445 134.571 C 116.044 135.467,115.328 136.545,114.854 136.966 C 114.380 137.387,113.721 138.647,113.390 139.766 C 113.058 140.885,112.283 142.520,111.667 143.400 C 111.052 144.280,110.318 145.810,110.036 146.800 C 109.755 147.790,109.019 149.500,108.401 150.600 C 107.783 151.700,106.973 154.107,106.602 155.949 C 106.231 157.791,105.483 160.477,104.941 161.919 C 102.172 169.275,102.260 200.302,105.065 205.726 C 105.402 206.378,106.025 208.637,106.449 210.746 C 106.874 212.856,107.749 215.756,108.394 217.191 C 109.039 218.626,109.755 220.540,109.984 221.445 C 110.214 222.350,110.881 223.790,111.468 224.645 C 112.055 225.500,112.862 227.050,113.262 228.089 C 113.661 229.128,114.621 230.807,115.394 231.819 C 116.167 232.832,116.800 233.917,116.800 234.229 C 116.800 234.542,117.391 235.473,118.114 236.299 C 118.837 237.124,119.962 238.577,120.614 239.527 C 121.266 240.476,122.354 242.047,123.032 243.018 C 124.442 245.038,134.644 255.276,136.908 256.942 C 137.737 257.553,138.888 258.491,139.466 259.026 C 140.044 259.562,140.670 260.000,140.857 260.000 C 141.044 260.000,141.873 260.609,142.699 261.354 C 143.524 262.099,144.891 262.996,145.736 263.349 C 146.580 263.701,147.772 264.410,148.383 264.924 C 148.994 265.438,150.103 266.103,150.847 266.401 C 151.591 266.699,152.951 267.471,153.868 268.116 C 154.785 268.762,156.752 269.627,158.238 270.039 C 159.724 270.451,161.583 271.234,162.370 271.779 C 163.156 272.324,165.113 273.046,166.718 273.383 C 168.323 273.721,170.458 274.371,171.463 274.829 C 173.688 275.842,177.964 276.783,180.400 276.795 C 181.390 276.799,184.420 277.171,187.134 277.620 C 192.586 278.522,203.504 278.546,207.400 277.665 C 208.500 277.416,211.788 276.941,214.707 276.608 C 218.407 276.187,220.741 275.698,222.411 274.995 C 223.729 274.441,226.021 273.706,227.504 273.363 C 228.987 273.020,231.100 272.229,232.200 271.604 C 233.300 270.979,235.256 270.194,236.547 269.860 C 237.838 269.525,239.278 268.892,239.747 268.453 C 240.216 268.013,241.500 267.270,242.600 266.801 C 243.700 266.332,245.050 265.522,245.600 265.000 C 246.150 264.478,247.413 263.704,248.406 263.280 C 249.399 262.856,250.456 262.214,250.756 261.853 C 251.056 261.492,252.358 260.554,253.650 259.769 C 254.943 258.984,256.000 258.218,256.000 258.065 C 256.000 257.913,256.689 257.363,257.532 256.842 C 258.374 256.321,259.405 255.388,259.822 254.767 C 260.239 254.146,261.001 253.413,261.516 253.138 C 262.030 252.863,262.728 252.168,263.067 251.594 C 263.406 251.020,264.186 250.213,264.800 249.800 C 265.414 249.387,266.194 248.580,266.533 248.006 C 266.872 247.432,267.575 246.734,268.096 246.456 C 268.617 246.177,269.478 245.244,270.010 244.383 C 270.543 243.522,271.182 242.739,271.431 242.644 C 271.679 242.548,272.389 241.599,273.008 240.535 C 273.626 239.471,274.733 237.893,275.466 237.028 C 276.200 236.163,276.802 235.263,276.804 235.028 C 276.806 234.793,277.426 233.822,278.183 232.871 C 278.939 231.920,279.769 230.480,280.028 229.671 C 280.287 228.862,280.952 227.593,281.506 226.852 C 282.060 226.111,282.856 224.401,283.275 223.052 C 283.693 221.703,284.471 219.970,285.003 219.200 C 285.534 218.430,286.235 216.539,286.559 214.998 C 286.883 213.457,287.677 210.757,288.325 208.998 C 289.181 206.672,289.685 204.181,290.175 199.863 C 290.545 196.598,291.017 193.481,291.224 192.937 C 291.709 191.661,291.681 177.556,291.189 175.200 C 290.982 174.210,290.539 170.805,290.205 167.632 C 289.745 163.274,289.355 161.336,288.606 159.700 C 288.061 158.509,287.248 155.990,286.799 154.102 C 286.351 152.214,285.467 149.754,284.834 148.635 C 284.202 147.516,283.567 146.040,283.423 145.356 C 283.279 144.672,282.542 143.152,281.786 141.978 C 281.029 140.803,280.204 139.203,279.951 138.421 C 279.699 137.640,278.925 136.190,278.232 135.200 C 277.538 134.210,276.662 132.719,276.286 131.888 C 275.909 131.056,275.326 130.270,274.990 130.141 C 274.654 130.012,273.916 129.116,273.350 128.151 C 272.784 127.186,272.105 126.262,271.841 126.098 C 271.576 125.934,270.928 125.170,270.401 124.400 C 267.847 120.673,262.071 114.563,259.800 113.186 C 258.920 112.653,257.660 111.718,257.000 111.109 C 254.078 108.415,251.532 106.400,251.049 106.400 C 250.760 106.400,250.181 106.020,249.762 105.556 C 249.343 105.092,247.920 104.169,246.600 103.504 C 245.280 102.840,243.778 101.877,243.263 101.366 C 242.748 100.854,241.316 100.142,240.082 99.783 C 238.848 99.424,237.399 98.786,236.864 98.364 C 236.328 97.943,234.759 97.249,233.377 96.822 C 231.994 96.395,229.933 95.574,228.796 94.998 C 227.658 94.421,225.281 93.696,223.513 93.385 C 221.745 93.074,219.319 92.453,218.123 92.005 C 213.260 90.186,192.853 89.273,183.000 90.434 M117.000 282.267 C 109.953 283.782,108.670 284.161,107.624 285.041 C 106.990 285.574,105.782 286.299,104.939 286.651 C 104.096 287.003,102.886 287.729,102.250 288.265 C 101.614 288.800,100.352 289.613,99.447 290.072 C 98.541 290.531,97.125 291.467,96.300 292.153 C 95.475 292.839,94.125 293.960,93.300 294.645 C 92.475 295.330,91.260 296.174,90.600 296.520 C 89.940 296.867,88.500 297.983,87.400 299.002 C 86.300 300.020,84.718 301.427,83.885 302.127 C 83.051 302.827,81.441 304.255,80.306 305.300 C 79.171 306.345,78.102 307.200,77.931 307.200 C 77.760 307.200,77.354 307.715,77.029 308.345 C 76.703 308.974,75.242 310.729,73.781 312.245 C 72.321 313.760,70.542 315.900,69.829 317.000 C 69.116 318.100,68.221 319.257,67.840 319.571 C 67.459 319.885,66.862 320.695,66.513 321.371 C 66.164 322.047,65.439 323.050,64.901 323.600 C 63.662 324.869,61.588 327.960,60.056 330.824 C 59.401 332.047,58.562 333.300,58.190 333.608 C 57.819 333.916,57.075 335.163,56.537 336.380 C 55.999 337.597,55.214 338.959,54.793 339.407 C 54.372 339.856,53.746 341.020,53.402 341.994 C 53.058 342.969,52.257 344.584,51.622 345.583 C 50.987 346.582,50.277 348.123,50.044 349.006 C 49.810 349.890,49.096 351.439,48.455 352.449 C 47.814 353.459,46.982 355.344,46.606 356.638 C 46.230 357.931,45.496 359.718,44.974 360.608 C 44.452 361.499,43.744 363.571,43.399 365.213 C 43.055 366.856,42.310 369.090,41.742 370.177 C 41.157 371.300,40.396 373.894,39.981 376.177 C 39.579 378.390,38.755 381.460,38.149 383.000 C 37.126 385.601,37.036 386.304,36.885 392.900 L 36.722 400.000 196.761 400.000 L 356.800 400.000 356.786 397.500 C 356.767 394.029,355.861 389.314,354.839 387.359 C 354.367 386.456,353.707 384.116,353.372 382.159 C 353.037 380.201,352.328 377.700,351.796 376.600 C 351.264 375.500,350.463 373.013,350.015 371.073 C 349.568 369.133,348.772 366.793,348.246 365.873 C 347.720 364.953,347.070 363.210,346.801 362.000 C 346.533 360.790,345.819 358.900,345.216 357.800 C 344.613 356.700,343.801 354.810,343.411 353.600 C 343.022 352.390,342.207 350.500,341.600 349.400 C 340.993 348.300,340.195 346.469,339.826 345.331 C 339.458 344.193,338.868 343.023,338.517 342.731 C 338.165 342.439,337.353 341.030,336.712 339.600 C 336.071 338.170,335.211 336.640,334.800 336.200 C 334.390 335.760,333.706 334.587,333.282 333.594 C 332.857 332.601,332.201 331.533,331.823 331.219 C 331.446 330.906,330.721 329.829,330.212 328.825 C 329.703 327.821,328.887 326.640,328.399 326.200 C 327.912 325.760,326.995 324.375,326.362 323.123 C 325.730 321.871,324.968 320.701,324.669 320.523 C 324.370 320.345,323.791 319.660,323.381 319.000 C 322.657 317.833,321.721 316.672,318.269 312.661 C 316.097 310.136,306.629 300.674,304.138 298.538 C 299.113 294.228,294.806 291.020,292.400 289.795 C 291.630 289.402,290.460 288.681,289.800 288.191 C 289.140 287.701,287.649 286.992,286.488 286.614 C 285.326 286.236,283.884 285.514,283.284 285.009 C 282.670 284.492,280.595 283.667,278.533 283.120 L 274.873 282.148 272.232 283.004 C 270.779 283.474,269.098 284.321,268.495 284.886 C 267.893 285.450,266.668 286.279,265.773 286.727 C 264.879 287.175,263.900 287.839,263.598 288.202 C 263.297 288.565,262.139 289.324,261.025 289.888 C 259.911 290.452,258.448 291.334,257.773 291.849 C 257.097 292.363,255.760 293.061,254.800 293.400 C 253.840 293.739,252.496 294.442,251.813 294.963 C 251.130 295.484,249.678 296.211,248.586 296.578 C 247.494 296.946,245.970 297.671,245.200 298.190 C 244.430 298.709,242.450 299.529,240.800 300.012 C 239.150 300.495,236.990 301.300,236.000 301.800 C 235.010 302.300,232.670 303.019,230.800 303.397 C 228.930 303.775,226.354 304.508,225.075 305.025 C 222.436 306.091,219.045 306.629,212.400 307.036 C 209.870 307.190,207.102 307.561,206.250 307.858 C 204.371 308.515,192.218 308.615,190.568 307.988 C 189.972 307.761,186.495 307.323,182.842 307.014 C 175.796 306.417,173.655 306.051,169.789 304.784 C 168.462 304.349,165.876 303.730,164.042 303.407 C 162.207 303.085,159.602 302.291,158.253 301.644 C 156.904 300.996,154.663 300.182,153.274 299.835 C 151.885 299.487,149.995 298.764,149.074 298.228 C 148.153 297.692,146.381 296.875,145.136 296.412 C 143.891 295.949,142.660 295.313,142.400 295.000 C 142.140 294.687,140.909 294.051,139.664 293.588 C 138.419 293.125,136.860 292.240,136.200 291.621 C 135.540 291.003,134.042 290.186,132.871 289.807 C 131.701 289.427,130.648 288.870,130.533 288.569 C 130.417 288.268,129.305 287.546,128.061 286.965 C 126.818 286.384,125.214 285.469,124.497 284.932 C 123.400 284.109,121.528 283.298,118.400 282.289 C 118.070 282.182,117.440 282.172,117.000 282.267 " stroke="none" fill="#dbdbdb" fill-rule="evenodd"></path><path id="path1" d="M0.000 200.000 L 0.000 400.000 18.361 400.000 L 36.722 400.000 36.885 392.900 C 37.036 386.304,37.126 385.601,38.149 383.000 C 38.755 381.460,39.579 378.390,39.981 376.177 C 40.396 373.894,41.157 371.300,41.742 370.177 C 42.310 369.090,43.055 366.856,43.399 365.213 C 43.744 363.571,44.452 361.499,44.974 360.608 C 45.496 359.718,46.230 357.931,46.606 356.638 C 46.982 355.344,47.814 353.459,48.455 352.449 C 49.096 351.439,49.810 349.890,50.044 349.006 C 50.277 348.123,50.987 346.582,51.622 345.583 C 52.257 344.584,53.058 342.969,53.402 341.994 C 53.746 341.020,54.372 339.856,54.793 339.407 C 55.214 338.959,55.999 337.597,56.537 336.380 C 57.075 335.163,57.819 333.916,58.190 333.608 C 58.562 333.300,59.401 332.047,60.056 330.824 C 61.588 327.960,63.662 324.869,64.901 323.600 C 65.439 323.050,66.164 322.047,66.513 321.371 C 66.862 320.695,67.459 319.885,67.840 319.571 C 68.221 319.257,69.116 318.100,69.829 317.000 C 70.542 315.900,72.321 313.760,73.781 312.245 C 75.242 310.729,76.703 308.974,77.029 308.345 C 77.354 307.715,77.760 307.200,77.931 307.200 C 78.102 307.200,79.171 306.345,80.306 305.300 C 81.441 304.255,83.051 302.827,83.885 302.127 C 84.718 301.427,86.300 300.020,87.400 299.002 C 88.500 297.983,89.940 296.867,90.600 296.520 C 91.260 296.174,92.475 295.331,93.300 294.645 C 94.125 293.960,95.475 292.839,96.300 292.153 C 97.125 291.467,98.541 290.531,99.447 290.072 C 100.352 289.613,101.612 288.805,102.247 288.276 C 102.881 287.747,104.210 286.958,105.200 286.522 C 106.190 286.086,107.239 285.440,107.532 285.085 C 108.192 284.285,109.588 283.821,114.272 282.845 L 117.944 282.079 120.607 283.045 C 122.071 283.577,123.838 284.438,124.534 284.960 C 125.230 285.482,126.818 286.384,128.061 286.965 C 129.305 287.546,130.417 288.268,130.533 288.569 C 130.648 288.870,131.701 289.427,132.871 289.807 C 134.042 290.186,135.540 291.003,136.200 291.621 C 136.860 292.240,138.419 293.125,139.664 293.588 C 140.909 294.051,142.140 294.687,142.400 295.000 C 142.660 295.313,143.891 295.949,145.136 296.412 C 146.381 296.875,148.153 297.692,149.074 298.228 C 149.995 298.764,151.885 299.487,153.274 299.835 C 154.663 300.182,156.904 300.996,158.253 301.644 C 159.602 302.291,162.207 303.085,164.042 303.407 C 165.876 303.730,168.462 304.349,169.789 304.784 C 173.655 306.051,175.796 306.417,182.842 307.014 C 186.495 307.323,189.972 307.761,190.568 307.988 C 192.218 308.615,204.371 308.515,206.250 307.858 C 207.102 307.561,209.870 307.190,212.400 307.036 C 219.045 306.629,222.436 306.091,225.075 305.025 C 226.354 304.508,228.930 303.775,230.800 303.397 C 232.670 303.019,235.010 302.300,236.000 301.800 C 236.990 301.300,239.150 300.495,240.800 300.012 C 242.450 299.529,244.430 298.709,245.200 298.190 C 245.970 297.671,247.494 296.946,248.586 296.578 C 249.678 296.211,251.130 295.484,251.813 294.963 C 252.496 294.442,253.840 293.739,254.800 293.400 C 255.760 293.061,257.097 292.363,257.773 291.849 C 258.448 291.334,259.911 290.452,261.025 289.888 C 262.139 289.324,263.297 288.565,263.598 288.202 C 263.900 287.839,264.879 287.175,265.773 286.727 C 266.668 286.279,267.893 285.450,268.495 284.886 C 269.098 284.321,270.779 283.474,272.232 283.004 L 274.873 282.148 278.533 283.120 C 280.595 283.667,282.670 284.492,283.284 285.009 C 283.884 285.514,285.326 286.236,286.488 286.614 C 287.649 286.992,289.140 287.701,289.800 288.191 C 290.460 288.681,291.630 289.402,292.400 289.795 C 294.806 291.020,299.113 294.228,304.138 298.538 C 306.629 300.674,316.097 310.136,318.269 312.661 C 321.721 316.672,322.657 317.833,323.381 319.000 C 323.791 319.660,324.370 320.345,324.669 320.523 C 324.968 320.701,325.730 321.871,326.362 323.123 C 326.995 324.375,327.912 325.760,328.399 326.200 C 328.887 326.640,329.703 327.821,330.212 328.825 C 330.721 329.829,331.446 330.906,331.823 331.219 C 332.201 331.533,332.857 332.601,333.282 333.594 C 333.706 334.587,334.390 335.760,334.800 336.200 C 335.211 336.640,336.071 338.170,336.712 339.600 C 337.353 341.030,338.165 342.439,338.517 342.731 C 338.868 343.023,339.458 344.193,339.826 345.331 C 340.195 346.469,340.993 348.300,341.600 349.400 C 342.207 350.500,343.022 352.390,343.411 353.600 C 343.801 354.810,344.613 356.700,345.216 357.800 C 345.819 358.900,346.533 360.790,346.801 362.000 C 347.070 363.210,347.720 364.953,348.246 365.873 C 348.772 366.793,349.568 369.133,350.015 371.073 C 350.463 373.013,351.264 375.500,351.796 376.600 C 352.328 377.700,353.037 380.201,353.372 382.159 C 353.707 384.116,354.367 386.456,354.839 387.359 C 355.861 389.314,356.767 394.029,356.786 397.500 L 356.800 400.000 378.400 400.000 L 400.000 400.000 400.000 200.000 L 400.000 0.000 200.000 0.000 L 0.000 0.000 0.000 200.000 M211.704 90.596 C 214.037 90.923,216.926 91.558,218.123 92.005 C 219.319 92.453,221.745 93.074,223.513 93.385 C 225.281 93.696,227.658 94.421,228.796 94.998 C 229.933 95.574,231.994 96.395,233.377 96.822 C 234.759 97.249,236.328 97.943,236.864 98.364 C 237.399 98.786,238.848 99.424,240.082 99.783 C 241.316 100.142,242.748 100.854,243.263 101.366 C 243.778 101.877,245.280 102.840,246.600 103.504 C 247.920 104.169,249.343 105.092,249.762 105.556 C 250.181 106.020,250.760 106.400,251.049 106.400 C 251.532 106.400,254.078 108.415,257.000 111.109 C 257.660 111.718,258.920 112.653,259.800 113.186 C 262.071 114.563,267.847 120.673,270.401 124.400 C 270.928 125.170,271.576 125.934,271.841 126.098 C 272.105 126.262,272.784 127.186,273.350 128.151 C 273.916 129.116,274.654 130.012,274.990 130.141 C 275.326 130.270,275.909 131.056,276.286 131.888 C 276.662 132.719,277.538 134.210,278.232 135.200 C 278.925 136.190,279.699 137.640,279.951 138.421 C 280.204 139.203,281.029 140.803,281.786 141.978 C 282.542 143.152,283.279 144.672,283.423 145.356 C 283.567 146.040,284.202 147.516,284.834 148.635 C 285.467 149.754,286.351 152.214,286.799 154.102 C 287.248 155.990,288.061 158.509,288.606 159.700 C 289.355 161.336,289.745 163.274,290.205 167.632 C 290.539 170.805,290.982 174.210,291.189 175.200 C 291.681 177.556,291.709 191.661,291.224 192.937 C 291.017 193.481,290.545 196.598,290.175 199.863 C 289.685 204.181,289.181 206.672,288.325 208.998 C 287.677 210.757,286.883 213.457,286.559 214.998 C 286.235 216.539,285.534 218.430,285.003 219.200 C 284.471 219.970,283.693 221.703,283.275 223.052 C 282.856 224.401,282.060 226.111,281.506 226.852 C 280.952 227.593,280.287 228.862,280.028 229.671 C 279.769 230.480,278.939 231.920,278.183 232.871 C 277.426 233.822,276.806 234.793,276.804 235.028 C 276.802 235.263,276.200 236.163,275.466 237.028 C 274.733 237.893,273.626 239.471,273.008 240.535 C 272.389 241.599,271.679 242.548,271.431 242.644 C 271.182 242.739,270.543 243.522,270.010 244.383 C 269.478 245.244,268.617 246.177,268.096 246.456 C 267.575 246.734,266.872 247.432,266.533 248.006 C 266.194 248.580,265.414 249.387,264.800 249.800 C 264.186 250.213,263.406 251.020,263.067 251.594 C 262.728 252.168,262.030 252.863,261.516 253.138 C 261.001 253.413,260.239 254.146,259.822 254.767 C 259.405 255.388,258.374 256.321,257.532 256.842 C 256.689 257.363,256.000 257.913,256.000 258.065 C 256.000 258.218,254.943 258.984,253.650 259.769 C 252.358 260.554,251.056 261.492,250.756 261.853 C 250.456 262.214,249.399 262.856,248.406 263.280 C 247.413 263.704,246.150 264.478,245.600 265.000 C 245.050 265.522,243.700 266.332,242.600 266.801 C 241.500 267.270,240.216 268.013,239.747 268.453 C 239.278 268.892,237.838 269.525,236.547 269.860 C 235.256 270.194,233.300 270.979,232.200 271.604 C 231.100 272.229,228.987 273.020,227.504 273.363 C 226.021 273.706,223.729 274.441,222.411 274.995 C 220.741 275.698,218.407 276.187,214.707 276.608 C 211.788 276.941,208.500 277.416,207.400 277.665 C 203.504 278.546,192.586 278.522,187.134 277.620 C 184.420 277.171,181.390 276.799,180.400 276.795 C 177.964 276.783,173.688 275.842,171.463 274.829 C 170.458 274.371,168.323 273.721,166.718 273.383 C 165.113 273.046,163.156 272.324,162.370 271.779 C 161.583 271.234,159.724 270.451,158.238 270.039 C 156.752 269.627,154.785 268.762,153.868 268.116 C 152.951 267.471,151.591 266.699,150.847 266.401 C 150.103 266.103,148.994 265.438,148.383 264.924 C 147.772 264.410,146.580 263.701,145.736 263.349 C 144.891 262.996,143.524 262.099,142.699 261.354 C 141.873 260.609,141.044 260.000,140.857 260.000 C 140.670 260.000,140.044 259.562,139.466 259.026 C 138.888 258.491,137.737 257.553,136.908 256.942 C 134.644 255.276,124.442 245.038,123.032 243.018 C 122.354 242.047,121.266 240.476,120.614 239.527 C 119.962 238.577,118.837 237.124,118.114 236.299 C 117.391 235.473,116.800 234.542,116.800 234.229 C 116.800 233.917,116.167 232.832,115.394 231.819 C 114.621 230.807,113.661 229.128,113.262 228.089 C 112.862 227.050,112.055 225.500,111.468 224.645 C 110.881 223.790,110.214 222.350,109.984 221.445 C 109.755 220.540,109.039 218.626,108.394 217.191 C 107.749 215.756,106.874 212.856,106.449 210.746 C 106.025 208.637,105.402 206.378,105.065 205.726 C 102.260 200.302,102.172 169.275,104.941 161.919 C 105.483 160.477,106.231 157.791,106.602 155.949 C 106.973 154.107,107.783 151.700,108.401 150.600 C 109.019 149.500,109.755 147.790,110.036 146.800 C 110.318 145.810,111.052 144.280,111.667 143.400 C 112.283 142.520,113.058 140.885,113.390 139.766 C 113.721 138.647,114.380 137.387,114.854 136.966 C 115.328 136.545,116.044 135.467,116.445 134.571 C 116.847 133.675,117.738 132.235,118.426 131.371 C 119.115 130.507,119.953 129.271,120.288 128.624 C 120.624 127.978,121.322 126.988,121.839 126.424 C 122.356 125.861,124.505 123.430,126.616 121.022 C 128.726 118.615,131.476 115.787,132.726 114.740 C 133.977 113.692,135.748 112.152,136.663 111.317 C 139.770 108.483,144.756 104.927,147.492 103.594 C 148.422 103.141,149.741 102.261,150.421 101.639 C 151.102 101.018,152.411 100.289,153.330 100.021 C 154.248 99.753,155.921 99.020,157.047 98.393 C 158.172 97.766,160.152 96.948,161.447 96.575 C 162.741 96.202,164.790 95.405,166.000 94.804 C 167.210 94.203,169.141 93.591,170.292 93.443 C 171.443 93.295,174.143 92.632,176.292 91.969 C 182.815 89.957,201.884 89.217,211.704 90.596 " stroke="none" fill="#9c9c9c" fill-rule="evenodd"></path></g></svg>